<?xml version="1.0" encoding="UTF-8"?>
<svg xmlns="http://www.w3.org/2000/svg" width="80" height="80" viewBox="0 0 80 80" fill="none">
  <path d="M15 51V32C15 30.3431 16.3431 29 18 29H28.3431C29.1388 29 29.9019 29.3161 30.4645 29.8787L34.1213 33.5355L34.8284 32.8284L34.1213 33.5355C35.059 34.4732 36.3308 35 37.6569 35H62C63.6569 35 65 36.3431 65 38V51C65 52.6569 63.6569 54 62 54H18C16.3431 54 15 52.6569 15 51Z" fill="#EDF6FA" stroke="#80BDDC" stroke-width="2"></path>
  <path d="M24 40H56C57.6569 40 59 41.3431 59 43V50C59 51.6569 57.6569 53 56 53H24C22.3431 53 21 51.6569 21 50V43C21 41.3431 22.3431 40 24 40Z" fill="white" stroke="#80BDDC" stroke-width="2"></path>
  <path d="M11.0126 51.2716C10.8529 49.5148 12.2362 48 14.0003 48H65.2401C67.0042 48 68.3875 49.5148 68.2277 51.2716L65.955 76.2716C65.8145 77.8168 64.5189 79 62.9673 79H16.2731C14.7214 79 13.4258 77.8168 13.2854 76.2716L11.0126 51.2716Z" fill="white" stroke="#80BDDC" stroke-width="2"></path>
  <rect x="39" width="2" height="31" rx="1" fill="#80BDDC"></rect>
  <path d="M34.295 25.7195C33.9017 25.3261 33.9017 24.6884 34.295 24.295C34.6884 23.9017 35.3261 23.9017 35.7195 24.295L40.705 29.2805C41.0983 29.6739 41.0983 30.3116 40.705 30.705C40.3116 31.0983 39.6739 31.0983 39.2805 30.705L34.295 25.7195Z" fill="#80BDDC"></path>
  <path d="M45.705 25.7195C46.0983 25.3261 46.0983 24.6884 45.705 24.295C45.3116 23.9017 44.6739 23.9017 44.2805 24.295L39.295 29.2805C38.9017 29.6739 38.9017 30.3116 39.295 30.705C39.6884 31.0983 40.3261 31.0983 40.7195 30.705L45.705 25.7195Z" fill="#80BDDC"></path>
</svg>
